<mxfile host="app.diagrams.net" modified="2023-12-27T07:58:05.735Z" agent="Mozilla/5.0 (Windows NT 10.0; Win64; x64; rv:120.0) Gecko/20100101 Firefox/120.0" etag="OHTpdnQp6z30HvHHMN8n" version="22.1.12" type="github">
  <diagram name="หน้า-1" id="-kFRJJxX4Sv2SK23weq9">
    <mxGraphModel dx="2117" dy="1727" grid="1" gridSize="10" guides="1" tooltips="1" connect="1" arrows="1" fold="1" page="1" pageScale="1" pageWidth="827" pageHeight="1169" math="0" shadow="0">
      <root>
        <mxCell id="0" />
        <mxCell id="1" parent="0" />
        <mxCell id="xeMIyk6oKUi8xe8yKl_S-9" value="&lt;font style=&quot;font-size: 14px;&quot; face=&quot;Garamond&quot;&gt;store in table&lt;/font&gt;" style="edgeStyle=orthogonalEdgeStyle;rounded=0;orthogonalLoop=1;jettySize=auto;html=1;entryX=0.5;entryY=0;entryDx=0;entryDy=0;" edge="1" parent="1" source="xeMIyk6oKUi8xe8yKl_S-1" target="xeMIyk6oKUi8xe8yKl_S-3">
          <mxGeometry relative="1" as="geometry" />
        </mxCell>
        <mxCell id="xeMIyk6oKUi8xe8yKl_S-15" value="" style="edgeStyle=orthogonalEdgeStyle;rounded=0;orthogonalLoop=1;jettySize=auto;html=1;" edge="1" parent="1" source="xeMIyk6oKUi8xe8yKl_S-1" target="xeMIyk6oKUi8xe8yKl_S-14">
          <mxGeometry relative="1" as="geometry" />
        </mxCell>
        <mxCell id="xeMIyk6oKUi8xe8yKl_S-1" value="&lt;font face=&quot;Garamond&quot; style=&quot;font-size: 18px;&quot;&gt;Create inputfile mapping structure&lt;/font&gt;" style="rounded=1;whiteSpace=wrap;html=1;fillColor=#CCFFCC;" vertex="1" parent="1">
          <mxGeometry x="140" y="50" width="190" height="70" as="geometry" />
        </mxCell>
        <mxCell id="xeMIyk6oKUi8xe8yKl_S-3" value="&lt;font style=&quot;font-size: 18px;&quot; face=&quot;Garamond&quot;&gt;Grammaire&lt;/font&gt;" style="swimlane;childLayout=stackLayout;horizontal=1;startSize=50;horizontalStack=0;rounded=1;fontSize=14;fontStyle=0;strokeWidth=2;resizeParent=0;resizeLast=1;shadow=0;dashed=0;align=center;arcSize=4;whiteSpace=wrap;html=1;" vertex="1" collapsed="1" parent="1">
          <mxGeometry x="480" y="130" width="110" height="50" as="geometry">
            <mxRectangle x="480" y="130" width="160" height="120" as="alternateBounds" />
          </mxGeometry>
        </mxCell>
        <mxCell id="xeMIyk6oKUi8xe8yKl_S-4" value="+Attribute1&#xa;+Attribute2&#xa;+Attribute3" style="align=left;strokeColor=none;fillColor=none;spacingLeft=4;fontSize=12;verticalAlign=top;resizable=0;rotatable=0;part=1;html=1;" vertex="1" parent="xeMIyk6oKUi8xe8yKl_S-3">
          <mxGeometry y="50" width="160" height="70" as="geometry" />
        </mxCell>
        <mxCell id="xeMIyk6oKUi8xe8yKl_S-8" style="edgeStyle=orthogonalEdgeStyle;rounded=0;orthogonalLoop=1;jettySize=auto;html=1;entryX=1;entryY=0.25;entryDx=0;entryDy=0;" edge="1" parent="1" source="xeMIyk6oKUi8xe8yKl_S-6" target="xeMIyk6oKUi8xe8yKl_S-3">
          <mxGeometry relative="1" as="geometry" />
        </mxCell>
        <mxCell id="xeMIyk6oKUi8xe8yKl_S-6" value="&lt;font style=&quot;font-size: 18px;&quot; face=&quot;Garamond&quot;&gt;DetailsGrammaire&lt;/font&gt;" style="swimlane;childLayout=stackLayout;horizontal=1;startSize=50;horizontalStack=0;rounded=1;fontSize=14;fontStyle=0;strokeWidth=2;resizeParent=0;resizeLast=1;shadow=0;dashed=0;align=center;arcSize=4;whiteSpace=wrap;html=1;" vertex="1" collapsed="1" parent="1">
          <mxGeometry x="770" y="200" width="150" height="50" as="geometry">
            <mxRectangle x="770" y="200" width="160" height="120" as="alternateBounds" />
          </mxGeometry>
        </mxCell>
        <mxCell id="xeMIyk6oKUi8xe8yKl_S-7" value="+Attribute1&#xa;+Attribute2&#xa;+Attribute3" style="align=left;strokeColor=none;fillColor=none;spacingLeft=4;fontSize=12;verticalAlign=top;resizable=0;rotatable=0;part=1;html=1;" vertex="1" parent="xeMIyk6oKUi8xe8yKl_S-6">
          <mxGeometry y="50" width="160" height="70" as="geometry" />
        </mxCell>
        <mxCell id="xeMIyk6oKUi8xe8yKl_S-19" value="" style="edgeStyle=orthogonalEdgeStyle;rounded=0;orthogonalLoop=1;jettySize=auto;html=1;" edge="1" parent="1" source="xeMIyk6oKUi8xe8yKl_S-14" target="xeMIyk6oKUi8xe8yKl_S-18">
          <mxGeometry relative="1" as="geometry" />
        </mxCell>
        <mxCell id="xeMIyk6oKUi8xe8yKl_S-14" value="&lt;font face=&quot;Garamond&quot; style=&quot;font-size: 18px;&quot;&gt;Create card program (CP)&lt;br&gt;&lt;/font&gt;" style="rounded=1;whiteSpace=wrap;html=1;fillColor=#CCFFCC;" vertex="1" parent="1">
          <mxGeometry x="140" y="158" width="190" height="70" as="geometry" />
        </mxCell>
        <mxCell id="xeMIyk6oKUi8xe8yKl_S-17" value="" style="edgeStyle=orthogonalEdgeStyle;rounded=0;orthogonalLoop=1;jettySize=auto;html=1;" edge="1" parent="1" source="xeMIyk6oKUi8xe8yKl_S-16" target="xeMIyk6oKUi8xe8yKl_S-1">
          <mxGeometry relative="1" as="geometry" />
        </mxCell>
        <mxCell id="xeMIyk6oKUi8xe8yKl_S-16" value="&lt;font style=&quot;font-size: 18px;&quot; face=&quot;Garamond&quot;&gt;Start&lt;/font&gt;" style="ellipse;whiteSpace=wrap;html=1;fillColor=#CCFFCC;" vertex="1" parent="1">
          <mxGeometry x="175" y="-40" width="120" height="60" as="geometry" />
        </mxCell>
        <mxCell id="xeMIyk6oKUi8xe8yKl_S-23" value="" style="edgeStyle=orthogonalEdgeStyle;rounded=0;orthogonalLoop=1;jettySize=auto;html=1;" edge="1" parent="1" source="xeMIyk6oKUi8xe8yKl_S-18" target="xeMIyk6oKUi8xe8yKl_S-22">
          <mxGeometry relative="1" as="geometry" />
        </mxCell>
        <mxCell id="xeMIyk6oKUi8xe8yKl_S-18" value="&lt;font style=&quot;font-size: 18px;&quot; face=&quot;Garamond&quot;&gt;Setup CP associated keys &amp;amp; Certificate&lt;br&gt;&lt;/font&gt;" style="rounded=1;whiteSpace=wrap;html=1;fillColor=#CCFFCC;" vertex="1" parent="1">
          <mxGeometry x="140" y="260" width="190" height="70" as="geometry" />
        </mxCell>
        <mxCell id="xeMIyk6oKUi8xe8yKl_S-28" value="" style="edgeStyle=orthogonalEdgeStyle;rounded=0;orthogonalLoop=1;jettySize=auto;html=1;" edge="1" parent="1" source="xeMIyk6oKUi8xe8yKl_S-22" target="xeMIyk6oKUi8xe8yKl_S-26">
          <mxGeometry relative="1" as="geometry" />
        </mxCell>
        <mxCell id="xeMIyk6oKUi8xe8yKl_S-29" value="&lt;font style=&quot;font-size: 18px;&quot; face=&quot;Garamond&quot;&gt;OUT&lt;/font&gt;" style="edgeLabel;html=1;align=center;verticalAlign=middle;resizable=0;points=[];" vertex="1" connectable="0" parent="xeMIyk6oKUi8xe8yKl_S-28">
          <mxGeometry x="-0.0889" y="2" relative="1" as="geometry">
            <mxPoint as="offset" />
          </mxGeometry>
        </mxCell>
        <mxCell id="xeMIyk6oKUi8xe8yKl_S-22" value="&lt;font style=&quot;font-size: 18px;&quot; face=&quot;Garamond&quot;&gt;Data preparation&lt;br&gt;&lt;/font&gt;" style="rounded=1;whiteSpace=wrap;html=1;fillColor=#CCFFCC;" vertex="1" parent="1">
          <mxGeometry x="140" y="370" width="190" height="70" as="geometry" />
        </mxCell>
        <mxCell id="xeMIyk6oKUi8xe8yKl_S-25" value="&lt;font face=&quot;Garamond&quot; style=&quot;font-size: 18px;&quot;&gt;IN&lt;/font&gt;" style="edgeStyle=orthogonalEdgeStyle;rounded=0;orthogonalLoop=1;jettySize=auto;html=1;" edge="1" parent="1" source="xeMIyk6oKUi8xe8yKl_S-24" target="xeMIyk6oKUi8xe8yKl_S-22">
          <mxGeometry relative="1" as="geometry" />
        </mxCell>
        <mxCell id="xeMIyk6oKUi8xe8yKl_S-24" value="&lt;font style=&quot;font-size: 18px;&quot; face=&quot;Garamond&quot;&gt;Customer Inputfile&lt;/font&gt;" style="shape=document;whiteSpace=wrap;html=1;boundedLbl=1;fillColor=#FFFF99;" vertex="1" parent="1">
          <mxGeometry x="-110" y="365" width="120" height="80" as="geometry" />
        </mxCell>
        <mxCell id="xeMIyk6oKUi8xe8yKl_S-26" value="&lt;div&gt;&lt;font style=&quot;font-size: 18px;&quot; face=&quot;Garamond&quot;&gt;Perso file&lt;/font&gt;&lt;/div&gt;&lt;div&gt;&lt;font style=&quot;font-size: 18px;&quot; face=&quot;Garamond&quot;&gt;(.CRD)&lt;br&gt;&lt;/font&gt;&lt;/div&gt;" style="shape=document;whiteSpace=wrap;html=1;boundedLbl=1;fillColor=#FFFF99;" vertex="1" parent="1">
          <mxGeometry x="460" y="365" width="120" height="80" as="geometry" />
        </mxCell>
      </root>
    </mxGraphModel>
  </diagram>
</mxfile>
